<mxfile host="app.diagrams.net" modified="2023-12-22T23:15:58.474Z" agent="Mozilla/5.0 (Windows NT 10.0; Win64; x64) AppleWebKit/537.36 (KHTML, like Gecko) Chrome/120.0.0.0 Safari/537.36 Edg/120.0.0.0" etag="NfNag_C14L8ZDFUTSl6W" version="22.1.11" type="onedrive">
  <diagram name="Page-1" id="MZwis4SlZpecT56Sy2Vo">
    <mxGraphModel grid="0" page="0" gridSize="10" guides="1" tooltips="1" connect="1" arrows="1" fold="1" pageScale="1" pageWidth="827" pageHeight="1169" math="0" shadow="0">
      <root>
        <mxCell id="0" />
        <mxCell id="1" parent="0" />
        <mxCell id="2O6b6B7htpeEumLPlASt-1" value="&lt;font style=&quot;font-size: 18px;&quot;&gt;Unpacked Exe Starts&lt;/font&gt;" style="rounded=0;whiteSpace=wrap;html=1;fontSize=16;fillColor=#f5f5f5;fontColor=#333333;strokeColor=#666666;" vertex="1" parent="1">
          <mxGeometry x="-1488.71" y="-224" width="189.41" height="70" as="geometry" />
        </mxCell>
        <mxCell id="2O6b6B7htpeEumLPlASt-3" value="" style="endArrow=classic;html=1;rounded=0;exitX=0.5;exitY=1;exitDx=0;exitDy=0;entryX=0.5;entryY=0;entryDx=0;entryDy=0;dashed=1;" edge="1" parent="1" source="2O6b6B7htpeEumLPlASt-1" target="2O6b6B7htpeEumLPlASt-18">
          <mxGeometry width="50" height="50" relative="1" as="geometry">
            <mxPoint x="-1401" y="67" as="sourcePoint" />
            <mxPoint x="-1394" y="-103" as="targetPoint" />
          </mxGeometry>
        </mxCell>
        <mxCell id="2O6b6B7htpeEumLPlASt-9" style="edgeStyle=orthogonalEdgeStyle;rounded=0;orthogonalLoop=1;jettySize=auto;html=1;exitX=0.5;exitY=1;exitDx=0;exitDy=0;" edge="1" parent="1" source="2O6b6B7htpeEumLPlASt-5" target="2O6b6B7htpeEumLPlASt-10">
          <mxGeometry relative="1" as="geometry">
            <mxPoint x="-1393.764705882353" y="102.35296989889707" as="targetPoint" />
          </mxGeometry>
        </mxCell>
        <mxCell id="2O6b6B7htpeEumLPlASt-5" value="&lt;div style=&quot;line-height: 19px; font-size: 14px; font-family: Consolas, &amp;quot;Courier New&amp;quot;, monospace; color: rgb(56, 58, 66);&quot;&gt;_isAdmin = runningAsAdmin()&lt;/div&gt;" style="rounded=1;whiteSpace=wrap;html=1;" vertex="1" parent="1">
          <mxGeometry x="-1504" y="-28" width="219.99" height="70" as="geometry" />
        </mxCell>
        <mxCell id="2O6b6B7htpeEumLPlASt-8" value="(Microsoft, 2021b)" style="text;html=1;strokeColor=none;fillColor=none;align=center;verticalAlign=middle;whiteSpace=wrap;rounded=0;" vertex="1" parent="1">
          <mxGeometry x="-1287" y="-8" width="107" height="30" as="geometry" />
        </mxCell>
        <mxCell id="2O6b6B7htpeEumLPlASt-11" style="edgeStyle=orthogonalEdgeStyle;rounded=0;orthogonalLoop=1;jettySize=auto;html=1;exitX=1;exitY=0.5;exitDx=0;exitDy=0;" edge="1" parent="1" source="2O6b6B7htpeEumLPlASt-10" target="2O6b6B7htpeEumLPlASt-12">
          <mxGeometry relative="1" as="geometry">
            <mxPoint x="-1198.0000071806066" y="119.29417509191171" as="targetPoint" />
          </mxGeometry>
        </mxCell>
        <mxCell id="2O6b6B7htpeEumLPlASt-21" style="edgeStyle=orthogonalEdgeStyle;rounded=0;orthogonalLoop=1;jettySize=auto;html=1;exitX=0.5;exitY=1;exitDx=0;exitDy=0;" edge="1" parent="1" source="2O6b6B7htpeEumLPlASt-10" target="2O6b6B7htpeEumLPlASt-22">
          <mxGeometry relative="1" as="geometry">
            <mxPoint x="-1394" y="180.71433803013406" as="targetPoint" />
          </mxGeometry>
        </mxCell>
        <mxCell id="2O6b6B7htpeEumLPlASt-10" value="&lt;div style=&quot;color: rgb(56, 58, 66); font-family: Consolas, &amp;quot;Courier New&amp;quot;, monospace; font-size: 14px; line-height: 19px;&quot;&gt;retCode = &lt;span style=&quot;color: rgb(64, 120, 242);&quot;&gt;getSelfIntegrityLevel&lt;/span&gt;(&lt;span style=&quot;color: rgb(166, 38, 164);&quot;&gt;&amp;amp;&lt;/span&gt;IntegrityLevel)&lt;/div&gt;" style="rounded=1;whiteSpace=wrap;html=1;" vertex="1" parent="1">
          <mxGeometry x="-1583.01" y="72.36" width="377.99" height="60" as="geometry" />
        </mxCell>
        <mxCell id="2O6b6B7htpeEumLPlASt-14" style="edgeStyle=orthogonalEdgeStyle;rounded=0;orthogonalLoop=1;jettySize=auto;html=1;exitX=0.5;exitY=1;exitDx=0;exitDy=0;entryX=0.5;entryY=0;entryDx=0;entryDy=0;" edge="1" parent="1" source="2O6b6B7htpeEumLPlASt-12" target="2O6b6B7htpeEumLPlASt-13">
          <mxGeometry relative="1" as="geometry" />
        </mxCell>
        <mxCell id="2O6b6B7htpeEumLPlASt-12" value="&lt;div style=&quot;color: rgb(56, 58, 66); font-family: Consolas, &amp;quot;Courier New&amp;quot;, monospace; font-size: 14px; line-height: 19px;&quot;&gt;getSelfIntegrityLevel(DWORD &lt;span style=&quot;color: rgb(166, 38, 164);&quot;&gt;*&lt;/span&gt;cb):&lt;/div&gt;" style="rounded=0;whiteSpace=wrap;html=1;fillColor=#dae8fc;strokeColor=#6c8ebf;" vertex="1" parent="1">
          <mxGeometry x="-911" y="308" width="272.5" height="40.65" as="geometry" />
        </mxCell>
        <mxCell id="2O6b6B7htpeEumLPlASt-15" style="edgeStyle=orthogonalEdgeStyle;rounded=0;orthogonalLoop=1;jettySize=auto;html=1;exitX=0.5;exitY=1;exitDx=0;exitDy=0;entryX=0.5;entryY=0;entryDx=0;entryDy=0;dashed=1;" edge="1" parent="1" source="2O6b6B7htpeEumLPlASt-13" target="2O6b6B7htpeEumLPlASt-17">
          <mxGeometry relative="1" as="geometry">
            <mxPoint x="-891.2" y="247" as="targetPoint" />
          </mxGeometry>
        </mxCell>
        <mxCell id="2O6b6B7htpeEumLPlASt-13" value="&lt;div style=&quot;color: rgb(56, 58, 66); font-family: Consolas, &amp;quot;Courier New&amp;quot;, monospace; font-size: 14px; line-height: 19px;&quot;&gt;&lt;div style=&quot;&quot;&gt;retVal &lt;span style=&quot;color: rgb(166, 38, 164);&quot;&gt;=&lt;/span&gt; &lt;span style=&quot;color: rgb(64, 120, 242);&quot;&gt;OpenProcessToken&lt;/span&gt;(GetCurrentProcess(),&amp;nbsp;TOKEN_QUERY&lt;span style=&quot;color: rgb(160, 161, 167); font-style: italic;&quot;&gt; /*0x8*/&lt;/span&gt;&lt;span style=&quot;background-color: initial;&quot;&gt;, &lt;/span&gt;&lt;span style=&quot;background-color: initial; color: rgb(166, 38, 164);&quot;&gt;&amp;amp;&lt;/span&gt;&lt;span style=&quot;background-color: initial;&quot;&gt;TokenHandle)&lt;/span&gt;&lt;br&gt;&lt;/div&gt;&lt;/div&gt;" style="rounded=1;whiteSpace=wrap;html=1;" vertex="1" parent="1">
          <mxGeometry x="-1095.02" y="381.96000000000004" width="644" height="44" as="geometry" />
        </mxCell>
        <mxCell id="2O6b6B7htpeEumLPlASt-17" value="&lt;div style=&quot;color: rgb(56, 58, 66); font-family: Consolas, &amp;quot;Courier New&amp;quot;, monospace; font-size: 14px; line-height: 19px;&quot;&gt;&lt;div style=&quot;&quot;&gt;&lt;div style=&quot;line-height: 19px;&quot;&gt;retVal = &lt;span style=&quot;color: rgb(64, 120, 242);&quot;&gt;GetTokenInformation&lt;/span&gt;(TokenHandle, TokenIntegrityLevel&lt;span style=&quot;color: rgb(160, 161, 167); font-style: italic;&quot;&gt; /*0x19*/&lt;/span&gt;, &lt;span style=&quot;color: rgb(166, 38, 164);&quot;&gt;&amp;amp;&lt;/span&gt;TokenInformation, ReturnLen, &lt;span style=&quot;color: rgb(166, 38, 164);&quot;&gt;&amp;amp;&lt;/span&gt;ReturnLen)&lt;/div&gt;&lt;/div&gt;&lt;div style=&quot;&quot;&gt;&lt;div style=&quot;line-height: 19px;&quot;&gt;*cb &lt;span style=&quot;color: rgb(166, 38, 164);&quot;&gt;=&lt;/span&gt; &lt;span style=&quot;color: rgb(64, 120, 242);&quot;&gt;GetSidSubAuthority&lt;/span&gt;(TokenInformation, &lt;span style=&quot;color: rgb(152, 104, 1);&quot;&gt;0&lt;/span&gt;)&lt;/div&gt;&lt;/div&gt;&lt;div style=&quot;background-color: rgb(250, 250, 250);&quot;&gt;&lt;/div&gt;&lt;/div&gt;" style="rounded=1;whiteSpace=wrap;html=1;" vertex="1" parent="1">
          <mxGeometry x="-1210.04" y="468" width="874.04" height="60" as="geometry" />
        </mxCell>
        <mxCell id="2O6b6B7htpeEumLPlASt-20" style="edgeStyle=orthogonalEdgeStyle;rounded=0;orthogonalLoop=1;jettySize=auto;html=1;exitX=0.5;exitY=1;exitDx=0;exitDy=0;entryX=0.5;entryY=0;entryDx=0;entryDy=0;" edge="1" parent="1" source="2O6b6B7htpeEumLPlASt-18" target="2O6b6B7htpeEumLPlASt-5">
          <mxGeometry relative="1" as="geometry" />
        </mxCell>
        <mxCell id="2O6b6B7htpeEumLPlASt-18" value="&lt;div style=&quot;color: rgb(56, 58, 66); font-family: Consolas, &amp;quot;Courier New&amp;quot;, monospace; font-size: 14px; line-height: 19px;&quot;&gt;&lt;div style=&quot;line-height: 19px;&quot;&gt;&lt;div style=&quot;&quot;&gt;GetModuleFileNameW(&lt;span style=&quot;color: rgb(152, 104, 1);&quot;&gt;0x0&lt;/span&gt;,&lt;span style=&quot;color: rgb(166, 38, 164);&quot;&gt;&amp;amp;&lt;/span&gt;selfPath,&lt;span style=&quot;color: rgb(152, 104, 1);&quot;&gt;0x1000&lt;/span&gt;)&lt;/div&gt;&lt;div style=&quot;&quot;&gt;&lt;span style=&quot;color: #4078f2;&quot;&gt;_wcscpy_s&lt;/span&gt;(&lt;span style=&quot;color: #a626a4;&quot;&gt;&amp;amp;&lt;/span&gt;selfZoneIdentifier,&lt;span style=&quot;color: #986801;&quot;&gt;0x1000&lt;/span&gt;,&lt;span style=&quot;color: #a626a4;&quot;&gt;&amp;amp;&lt;/span&gt;selfPath)&lt;/div&gt;&lt;div style=&quot;&quot;&gt;&lt;span style=&quot;background-color: initial; color: rgb(64, 120, 242);&quot;&gt;_wcscat_s&lt;/span&gt;&lt;span style=&quot;background-color: initial;&quot;&gt;(&lt;/span&gt;&lt;span style=&quot;background-color: initial; color: rgb(166, 38, 164);&quot;&gt;&amp;amp;&lt;/span&gt;&lt;span style=&quot;background-color: initial;&quot;&gt;selfZoneIdentifier,&lt;/span&gt;&lt;span style=&quot;background-color: initial; color: rgb(152, 104, 1);&quot;&gt;0x1000&lt;/span&gt;&lt;span style=&quot;background-color: initial;&quot;&gt;,L&lt;/span&gt;&lt;span style=&quot;background-color: initial; color: rgb(80, 161, 79);&quot;&gt;&quot;:Zone.Identifier&quot;&lt;/span&gt;&lt;span style=&quot;background-color: initial;&quot;&gt;)&lt;/span&gt;&lt;/div&gt;&lt;div style=&quot;&quot;&gt;&lt;span style=&quot;color: rgb(64, 120, 242);&quot;&gt;DeleteFileW&lt;/span&gt;(&lt;span style=&quot;color: rgb(166, 38, 164);&quot;&gt;&amp;amp;&lt;/span&gt;selfZoneIdentifier)&lt;/div&gt;&lt;/div&gt;&lt;/div&gt;" style="rounded=1;whiteSpace=wrap;html=1;" vertex="1" parent="1">
          <mxGeometry x="-1616" y="-132" width="444" height="82" as="geometry" />
        </mxCell>
        <mxCell id="2O6b6B7htpeEumLPlASt-24" style="edgeStyle=orthogonalEdgeStyle;rounded=0;orthogonalLoop=1;jettySize=auto;html=1;exitX=0;exitY=0.5;exitDx=0;exitDy=0;" edge="1" parent="1" source="2O6b6B7htpeEumLPlASt-22">
          <mxGeometry relative="1" as="geometry">
            <mxPoint x="-1736" y="312" as="targetPoint" />
          </mxGeometry>
        </mxCell>
        <mxCell id="2O6b6B7htpeEumLPlASt-22" value="&lt;div style=&quot;color: rgb(56, 58, 66); font-family: Consolas, &amp;quot;Courier New&amp;quot;, monospace; font-size: 14px; line-height: 19px;&quot;&gt;&lt;div style=&quot;&quot;&gt;&amp;nbsp;if retCode&lt;span style=&quot;color: rgb(166, 38, 164);&quot;&gt;==&lt;/span&gt;&lt;span style=&quot;color: rgb(152, 104, 1);&quot;&gt;0&lt;/span&gt;:&lt;/div&gt;&lt;div style=&quot;&quot;&gt;&amp;nbsp; &amp;nbsp; retCode&lt;span style=&quot;color: #a626a4;&quot;&gt;=&lt;/span&gt; &lt;span style=&quot;color: #4078f2;&quot;&gt;createNewProcess&lt;/span&gt;()&lt;/div&gt;&lt;div style=&quot;&quot;&gt;&amp;nbsp; &amp;nbsp; &lt;span style=&quot;color: #a626a4;&quot;&gt;if&lt;/span&gt; retCode&lt;span style=&quot;color: #a626a4;&quot;&gt;!=&lt;/span&gt; &lt;span style=&quot;color: #986801;&quot;&gt;0&lt;/span&gt;: &lt;span style=&quot;color: #a626a4;&quot;&gt;return&lt;/span&gt; &lt;span style=&quot;color: #986801;&quot;&gt;1&lt;/span&gt;&lt;/div&gt;&lt;div style=&quot;&quot;&gt;&lt;span style=&quot;color: #a626a4;&quot;&gt;&amp;nbsp;else&lt;/span&gt;:&lt;/div&gt;&lt;div style=&quot;&quot;&gt;&amp;nbsp; &amp;nbsp; &lt;span style=&quot;color: #a626a4;&quot;&gt;if&lt;/span&gt; IntegrityLevel &lt;span style=&quot;color: #a626a4;&quot;&gt;==&lt;/span&gt; SECURITY_MANDATORY_MEDIUM_RID&lt;span style=&quot;color: #a0a1a7;font-style: italic;&quot;&gt; /*0x2000*/&lt;/span&gt;&lt;/div&gt;&lt;div style=&quot;&quot;&gt;&amp;nbsp; &amp;nbsp; &amp;nbsp; &amp;nbsp; &lt;span style=&quot;color: #a626a4;&quot;&gt;||&lt;/span&gt; IntegrityLevel &lt;span style=&quot;color: #a626a4;&quot;&gt;==&lt;/span&gt; SECURITY_MANDATORY_HIGH_RID&lt;span style=&quot;color: #a0a1a7;font-style: italic;&quot;&gt; /*0x3000*/&lt;/span&gt;&lt;/div&gt;&lt;div style=&quot;&quot;&gt;&amp;nbsp; &amp;nbsp; &amp;nbsp; &amp;nbsp; &amp;nbsp; &amp;nbsp; &lt;span style=&quot;color: #a626a4;&quot;&gt;||&lt;/span&gt; IntegrityLevel &lt;span style=&quot;color: #a626a4;&quot;&gt;==&lt;/span&gt; SECURITY_MANDATORY_SYSTEM_RID&lt;span style=&quot;color: #a0a1a7;font-style: italic;&quot;&gt; /*0x4000*/&lt;/span&gt;:&lt;/div&gt;&lt;div style=&quot;&quot;&gt;&amp;nbsp; &amp;nbsp; &amp;nbsp; &amp;nbsp; retCode &lt;span style=&quot;color: #a626a4;&quot;&gt;=&lt;/span&gt; &lt;span style=&quot;color: #4078f2;&quot;&gt;createNewProcess&lt;/span&gt;()&lt;/div&gt;&lt;div style=&quot;&quot;&gt;&amp;nbsp; &amp;nbsp; &amp;nbsp; &amp;nbsp; &lt;span style=&quot;color: #a626a4;&quot;&gt;if&lt;/span&gt; retCode&lt;span style=&quot;color: #a626a4;&quot;&gt;!=&lt;/span&gt;&lt;span style=&quot;color: #986801;&quot;&gt;0&lt;/span&gt;: &lt;span style=&quot;color: #a626a4;&quot;&gt;return&lt;/span&gt; &lt;span style=&quot;color: #986801;&quot;&gt;1&lt;/span&gt;&lt;/div&gt;&lt;br&gt;&lt;div style=&quot;&quot;&gt;&amp;nbsp; &amp;nbsp; &lt;span style=&quot;color: #a626a4;&quot;&gt;else&lt;/span&gt; &lt;span style=&quot;color: #a626a4;&quot;&gt;if&lt;/span&gt; IntegrityLevel &lt;span style=&quot;color: #a626a4;&quot;&gt;&amp;lt;&lt;/span&gt; &lt;span style=&quot;color: #986801;&quot;&gt;0x2001&lt;/span&gt;:&lt;/div&gt;&lt;div style=&quot;&quot;&gt;&amp;nbsp; &amp;nbsp; &amp;nbsp; &amp;nbsp; &lt;span style=&quot;color: #4078f2;&quot;&gt;runWithCmd&lt;/span&gt;()&lt;/div&gt;&lt;div style=&quot;&quot;&gt;&amp;nbsp; &amp;nbsp; &amp;nbsp; &amp;nbsp; &lt;span style=&quot;color: rgb(166, 38, 164);&quot;&gt;return&lt;/span&gt; &lt;span style=&quot;color: rgb(152, 104, 1);&quot;&gt;1&lt;/span&gt;&lt;/div&gt;&lt;/div&gt;" style="rounded=1;whiteSpace=wrap;html=1;align=left;" vertex="1" parent="1">
          <mxGeometry x="-1682.01" y="166" width="576" height="292" as="geometry" />
        </mxCell>
        <mxCell id="2O6b6B7htpeEumLPlASt-25" style="edgeStyle=orthogonalEdgeStyle;rounded=0;orthogonalLoop=1;jettySize=auto;html=1;exitX=-0.001;exitY=0.825;exitDx=0;exitDy=0;exitPerimeter=0;" edge="1" parent="1" source="2O6b6B7htpeEumLPlASt-22">
          <mxGeometry relative="1" as="geometry">
            <mxPoint x="-1715" y="461" as="targetPoint" />
            <mxPoint x="-1682.01" y="408" as="sourcePoint" />
            <Array as="points">
              <mxPoint x="-1715" y="407" />
              <mxPoint x="-1715" y="459" />
            </Array>
          </mxGeometry>
        </mxCell>
      </root>
    </mxGraphModel>
  </diagram>
</mxfile>
